<svg width="100%" height="100%" viewBox="0 0 100 100" fill="none" xmlns="http://www.w3.org/2000/svg">
<rect x="10" y="10" width="80" height="80" rx="15" fill="#F0FFF0"/>
<path d="M20 30L80 30L75 80L25 80L20 30Z" fill="#90EE90"/>
<rect x="30" y="40" width="40" height="30" rx="5" fill="#FFD700"/>
<circle cx="50" cy="55" r="10" fill="#CD5C5C"/>
<path d="M45 55L55 55M50 50L50 60" stroke="white" stroke-width="2" stroke-linecap="round"/>
<path d="M35 45L35 35L45 35L45 45" stroke="#8B4513" stroke-width="2" stroke-linecap="round"/>
<path d="M65 45L65 35L55 35L55 45" stroke="#8B4513" stroke-width="2" stroke-linecap="round"/>
<path d="M25 80L75 80" stroke="#8B4513" stroke-width="3" stroke-linecap="round"/>
<path d="M30 85L70 85" stroke="#8B4513" stroke-width="2" stroke-linecap="round"/>
<path d="M40 90L60 90" stroke="#8B4513" stroke-width="2" stroke-linecap="round"/>
<path d="M20 20L20 80L80 80L80 20L20 20Z" stroke="#3CB371" stroke-width="4" stroke-linecap="round" stroke-linejoin="round"/>
<path d="M30 15L70 15" stroke="#3CB371" stroke-width="3" stroke-linecap="round"/>
<path d="M15 40L15 60M85 40L85 60" stroke="#3CB371" stroke-width="3" stroke-linecap="round"/>
</svg>