<svg width="100%" height="100%" viewBox="0 0 100 100" fill="none" xmlns="http://www.w3.org/2000/svg">
<rect x="5" y="5" width="90" height="90" rx="10" fill="#F5F5DC"/>
<rect x="10" y="10" width="80" height="70" rx="5" fill="#D2B48C"/>
<rect x="15" y="15" width="70" height="50" rx="5" fill="#F8F8F8"/>
<rect x="20" y="20" width="20" height="30" rx="3" fill="#A9A9A9"/>
<rect x="60" y="20" width="20" height="30" rx="3" fill="#A9A9A9"/>
<rect x="25" y="60" width="50" height="15" rx="3" fill="#8B4513"/>
<circle cx="50" cy="40" r="10" fill="#FFD700"/>
<path d="M45 40L55 40M50 35L50 45" stroke="#CD5C5C" stroke-width="2" stroke-linecap="round"/>
<path d="M30 65L70 65" stroke="#8B4513" stroke-width="2" stroke-linecap="round"/>
<path d="M35 70L65 70" stroke="#8B4513" stroke-width="2" stroke-linecap="round"/>
<path d="M40 75L60 75" stroke="#8B4513" stroke-width="2" stroke-linecap="round"/>
<path d="M10 80L90 80" stroke="#8B4513" stroke-width="5" stroke-linecap="round"/>
<path d="M15 85L85 85" stroke="#8B4513" stroke-width="3" stroke-linecap="round"/>
<path d="M20 90L80 90" stroke="#8B4513" stroke-width="2" stroke-linecap="round"/>
<path d="M50 10L50 5M40 15L60 15" stroke="#8B4513" stroke-width="2" stroke-linecap="round"/>
<path d="M10 30L5 30M95 30L90 30" stroke="#8B4513" stroke-width="2" stroke-linecap="round"/>
</svg>