<svg width="100%" height="100%" viewBox="0 0 100 100" fill="none" xmlns="http://www.w3.org/2000/svg">
<rect x="10" y="10" width="80" height="80" rx="15" fill="#F0FFF0"/>
<circle cx="35" cy="35" r="12" fill="#FFD700"/>
<circle cx="65" cy="35" r="12" fill="#FFD700"/>
<path d="M20 60C20 50 30 45 35 45C40 45 50 50 50 60L50 75C50 80 45 85 40 85L30 85C25 85 20 80 20 75L20 60Z" fill="#CD5C5C"/>
<path d="M50 60C50 50 60 45 65 45C70 45 80 50 80 60L80 75C80 80 75 85 70 85L60 85C55 85 50 80 50 75L50 60Z" fill="#CD5C5C"/>
<path d="M30 65L40 65M35 70L35 70" stroke="white" stroke-width="2" stroke-linecap="round"/>
<path d="M60 65L70 65M65 70L65 70" stroke="white" stroke-width="2" stroke-linecap="round"/>
<path d="M25 50L75 50" stroke="#8B4513" stroke-width="3" stroke-linecap="round"/>
<path d="M30 55L70 55" stroke="#8B4513" stroke-width="2" stroke-linecap="round"/>
<path d="M35 60L65 60" stroke="#8B4513" stroke-width="2" stroke-linecap="round"/>
</svg>