<!-- public/images/gallery_bakso_4.svg -->
<svg width="100%" height="100%" viewBox="0 0 100 100" fill="none" xmlns="http://www.w3.org/2000/svg">
<rect x="10" y="30" width="80" height="60" rx="10" fill="#F8F8F8" stroke="#E0E0E0" stroke-width="2"/>
<path d="M15 35C15 35 20 25 50 25C80 25 85 35 85 35L80 90H20L15 35Z" fill="#FFD700"/>
<path d="M25 50C25 50 30 40 50 40C70 40 75 50 75 50L70 80H30L25 50Z" fill="#F0E68C"/>
<path d="M30 55C30 55 35 45 50 45C65 45 70 55 70 55" stroke="#8B4513" stroke-width="2" stroke-linecap="round"/>
<path d="M35 60C35 60 40 50 50 50C60 50 65 60 65 60" stroke="#8B4513" stroke-width="2" stroke-linecap="round"/>
<path d="M40 65C40 65 45 55 50 55C55 55 60 65 60 65" stroke="#8B4513" stroke-width="2" stroke-linecap="round"/>
<circle cx="50" cy="70" r="10" fill="#CD5C5C"/>
<circle cx="35" cy="75" r="7" fill="#CD5C5C"/>
<circle cx="65" cy="75" r="7" fill="#CD5C5C"/>
<path d="M20 40C20 40 30 30 50 30C70 30 80 40 80 40" stroke="#8B4513" stroke-width="3" stroke-linecap="round"/>
<path d="M25 45C25 45 35 35 50 35C65 35 75 45 75 45" stroke="#8B4513" stroke-width="2" stroke-linecap="round"/>
<path d="M40 80L45 85L55 75L60 80" stroke="#8B4513" stroke-width="2" stroke-linecap="round" stroke-linejoin="round"/>
<path d="M30 85L70 85" stroke="#8B4513" stroke-width="2" stroke-linecap="round"/>
</svg>