<!-- public/images/fresh_ingredients.svg -->
<svg width="100%" height="100%" viewBox="0 0 100 100" fill="none" xmlns="http://www.w3.org/2000/svg">
<rect x="10" y="10" width="80" height="80" rx="15" fill="#F0FFF0"/>
<path d="M30 30C30 20 40 10 50 10C60 10 70 20 70 30L70 70C70 80 60 90 50 90C40 90 30 80 30 70L30 30Z" fill="#90EE90"/>
<circle cx="50" cy="50" r="15" fill="#FF6347"/>
<circle cx="35" cy="40" r="8" fill="#FFD700"/>
<circle cx="65" cy="40" r="8" fill="#FFD700"/>
<circle cx="50" cy="70" r="8" fill="#ADD8E6"/>
<path d="M40 60L60 60" stroke="#8B4513" stroke-width="3" stroke-linecap="round"/>
<path d="M50 40L50 60" stroke="#8B4513" stroke-width="3" stroke-linecap="round"/>
<path d="M30 30L70 30" stroke="#3CB371" stroke-width="4" stroke-linecap="round"/>
<path d="M30 70L70 70" stroke="#3CB371" stroke-width="4" stroke-linecap="round"/>
<path d="M15 45L25 45M15 55L25 55M15 65L25 65" stroke="#3CB371" stroke-width="2" stroke-linecap="round"/>
<path d="M75 45L85 45M75 55L85 55M75 65L85 65" stroke="#3CB371" stroke-width="2" stroke-linecap="round"/>
</svg>