<!-- public/images/gallery_customer_1.svg -->
<svg width="100%" height="100%" viewBox="0 0 100 100" fill="none" xmlns="http://www.w3.org/2000/svg">
<rect x="10" y="10" width="80" height="80" rx="15" fill="#F0FFF0"/>
<circle cx="50" cy="35" r="15" fill="#FFD700"/>
<path d="M30 60C30 50 40 45 50 45C60 45 70 50 70 60L70 75C70 80 65 85 60 85L40 85C35 85 30 80 30 75L30 60Z" fill="#CD5C5C"/>
<path d="M40 65L60 65" stroke="white" stroke-width="2" stroke-linecap="round"/>
<path d="M45 70L55 70" stroke="white" stroke-width="2" stroke-linecap="round"/>
<path d="M50 30L50 40" stroke="#8B4513" stroke-width="2" stroke-linecap="round"/>
<path d="M40 25L60 25" stroke="#8B4513" stroke-width="2" stroke-linecap="round"/>
<path d="M35 20L65 20" stroke="#8B4513" stroke-width="2" stroke-linecap="round"/>
<path d="M20 50L80 50" stroke="#8B4513" stroke-width="3" stroke-linecap="round"/>
<path d="M25 55L75 55" stroke="#8B4513" stroke-width="2" stroke-linecap="round"/>
<path d="M30 60L70 60" stroke="#8B4513" stroke-width="2" stroke-linecap="round"/>
</svg>