<!-- public/images/bakso_urat.svg -->
<svg width="100%" height="100%" viewBox="0 0 100 100" fill="none" xmlns="http://www.w3.org/2000/svg">
<rect x="10" y="30" width="80" height="60" rx="10" fill="#F8F8F8" stroke="#E0E0E0" stroke-width="2"/>
<path d="M15 35C15 35 20 25 50 25C80 25 85 35 85 35L80 90H20L15 35Z" fill="#FFD700"/>
<circle cx="50" cy="50" r="15" fill="#A0522D"/>
<circle cx="35" cy="65" r="10" fill="#A0522D"/>
<circle cx="65" cy="65" r="10" fill="#A0522D"/>
<path d="M45 45L55 55M55 45L45 55" stroke="white" stroke-width="1.5" stroke-linecap="round"/>
<path d="M30 60L40 70M40 60L30 70" stroke="white" stroke-width="1.5" stroke-linecap="round"/>
<path d="M60 60L70 70M70 60L60 70" stroke="white" stroke-width="1.5" stroke-linecap="round"/>
<path d="M20 40C20 40 30 30 50 30C70 30 80 40 80 40" stroke="#8B4513" stroke-width="3" stroke-linecap="round"/>
<path d="M25 45C25 45 35 35 50 35C65 35 75 45 75 45" stroke="#8B4513" stroke-width="2" stroke-linecap="round"/>
<path d="M40 75L45 80L55 70L60 75" stroke="#8B4513" stroke-width="2" stroke-linecap="round" stroke-linejoin="round"/>
<path d="M30 85L70 85" stroke="#8B4513" stroke-width="2" stroke-linecap="round"/>
</svg>