<svg width="24" height="24" viewBox="0 0 24 24" fill="none" xmlns="http://www.w3.org/2000/svg">
<path d="M12 2C6.47715 2 2 6.47715 2 12C2 17.5228 6.47715 22 12 22C17.5228 22 22 17.5228 22 12C22 6.47715 17.5228 2 12 2Z" fill="orange"/>
<path d="M12 6C9.79086 6 8 7.79086 8 10C8 12.2091 9.79086 14 12 14C14.2091 14 16 12.2091 16 10C16 7.79086 14.2091 6 12 6Z" fill="white"/>
<path d="M12 14C10.3431 14 9 15.3431 9 17C9 18.6569 10.3431 20 12 20C13.6569 20 15 18.6569 15 17C15 15.3431 13.6569 14 12 14Z" fill="red"/>
<path d="M12 10L12 14" stroke="orange" stroke-width="1.5" stroke-linecap="round" stroke-linejoin="round"/>
<path d="M10 12L14 12" stroke="orange" stroke-width="1.5" stroke-linecap="round" stroke-linejoin="round"/>
<circle cx="12" cy="10" r="1.5" fill="red"/>
<circle cx="10" cy="12" r="1.5" fill="red"/>
<circle cx="14" cy="12" r="1.5" fill="red"/>
<circle cx="12" cy="14" r="1.5" fill="red"/>
</svg>