<svg width="100%" height="100%" viewBox="0 0 100 100" fill="none" xmlns="http://www.w3.org/2000/svg">
<rect x="15" y="15" width="70" height="70" rx="10" fill="#FFFAF0"/>
<path d="M50 20L80 40L50 80L20 40L50 20Z" fill="#FFD700"/>
<circle cx="50" cy="40" r="10" fill="#CD5C5C"/>
<path d="M40 50L60 50" stroke="#8B4513" stroke-width="3" stroke-linecap="round"/>
<path d="M50 40L50 60" stroke="#8B4513" stroke-width="3" stroke-linecap="round"/>
<path d="M45 65L55 65" stroke="#8B4513" stroke-width="2" stroke-linecap="round"/>
<path d="M40 70L60 70" stroke="#8B4513" stroke-width="2" stroke-linecap="round"/>
<path d="M35 75L65 75" stroke="#8B4513" stroke-width="2" stroke-linecap="round"/>
<path d="M25 80L75 80" stroke="#8B4513" stroke-width="2" stroke-linecap="round"/>
<path d="M50 20L50 10" stroke="#8B4513" stroke-width="3" stroke-linecap="round"/>
<path d="M50 10L40 15L60 15L50 10Z" fill="#8B4513"/>
<path d="M20 40L10 40M90 40L80 40" stroke="#8B4513" stroke-width="3" stroke-linecap="round"/>
<path d="M25 50L15 50M85 50L75 50" stroke="#8B4513" stroke-width="2" stroke-linecap="round"/>
<path d="M30 60L20 60M80 60L70 60" stroke="#8B4513" stroke-width="2" stroke-linecap="round"/>
</svg>